<?xml version="1.0" standalone="no"?>
<svg xmlns="http://www.w3.org/2000/svg" viewBox="0 0 59 73" width="59" height="73"><g fill="#000000" color="#000000" transform="translate(7.286 0) scale(0.9166667) "><svg width="48.0" height="48.0" x="0.0" y="0.0" viewBox="0 0 48 48"><path fill="currentColor" fill-rule="evenodd" d="M27.277.016c.25 1.305.528 2.625.66 3.989.337 3.256.337 6.526.484 9.81.117 3.022-.147 6.116.498 9.093.367 1.657.836 3.285 1.218 4.942.293 1.32.366 2.684.615 4.033.514 2.757 1.702 5.177 2.259 7.89.475 2.323.826 4.746 1.083 7.182L34.2 48H32.6c-.029-.19-.073-.396-.102-.572a69.75 69.75 0 0 0-2.244-8.124c-1.012-2.904-1.965-5.382-2.39-8.491-.352-2.89-1.408-5.573-1.804-8.433-.866-6.027-.088-12.26-.85-18.331a47.803 47.803 0 0 0-.59-3.23l-.173-.803h2.83zM18.82 0c.029 1.085.088 2.156.132 3.226.16 3.241.396 6.512.22 9.753-.294 5.792-2.479 11.394-4.033 16.776-.88 3.08-1.012 6.1-1.012 9.327 0 2.706-.226 5.352-.079 8.025l.064.892H10.74c-.454-2.01-.982-3.99-1.672-5.925-1.569-4.634-3.402-9.298-4.355-14.167-.425-2.302-.792-4.692-.748-7.053.059-2.45.484-4.84.85-7.26.65-4.21.963-8.307.984-12.523V.015h.835c.968 4.223.807 8.916.513 13.183-.176 2.523-.704 5.075-.689 7.597.03 2.61.381 5.118.895 7.64.967 4.855 2.625 9.43 4.091 14.064.059-1.833.147-3.695.176-5.529.073-2.669.352-5.132 1.203-7.61.997-2.904 2.243-5.661 3.065-8.668.792-2.8.894-5.455.835-8.403-.073-3.24-.249-6.496-.395-9.752-.047-.622-.113-1.29-.175-1.999L16.107 0h2.713zM.279.013C2.83.526 3.285 16.042 3.373 17.89c.147 3.49.308 6.951.161 10.456-.044.895-.073 1.774-.117 2.684.44 1.833.484 3.783 1.056 5.602.63 1.92 1.51 3.695 2.317 5.528a27.412 27.412 0 0 1 1.654 5.16l.135.662h-1.07c-.133-.322-.28-.63-.44-.938-.998-1.995-2.244-3.784-3.197-5.807-.176-.367-.338-.778-.528-1.188.12 2.453.434 4.857 1.007 7.235l.18.713h-2.61c-2.346-8.843-.381-18.61-.63-27.76-.132-4.034-.235-8.052-.455-12.085C.763 6.392.63 4.647.469 2.888.428 2.432.451.78.075.344L0 .277V.013h.279zm19.959 30.825c-.47 3.416-.836 6.892-.792 10.382.012 1.924.197 3.868.333 5.807l.063.969h-2.728c-.264-2.757-.44-5.514-.367-8.286.118-3.446.338-7.054.968-10.427.66-3.373 1.687-6.6 2.215-10.016.557-3.446 1.452-6.922 1.056-10.442-.29-2.551-.665-5.038-.886-7.544L20.003.026h2.713c.044.499.073.998.117 1.51.323 3.257 1.276 6.776 1.027 10.105a44.549 44.549 0 0 1-.425 3.666c.058 2.801-.074 5.632.058 8.491.132 2.596.396 5.236 1.115 7.7.616 2.067 1.232 4.164 1.628 6.305.613 3.107.911 6.165 1.037 9.262l.033.93h-2.449c-.425-4.326-.836-8.666-2.068-12.817-.777-2.654-1.451-5.352-1.789-8.108-.308 1.245-.586 2.477-.762 3.768zM29.903.012h2.67c.337 2.625.63 5.25.791 7.919.22 4.355.382 8.74.91 13.066.513 4.033 1.642 7.45 3.138 11.072 1.305 3.197 2.478 6.336 2.904 9.885.2 1.697.272 3.437.298 5.174l.01.868H37.91c.015-2.097-.044-4.165-.366-6.218-.587-3.725-2.068-6.922-3.417-10.31-2.918-7.391-3.021-15.442-3.49-23.479-.147-2.405-.235-4.854-.616-7.259l-.059-.359-.059-.36h2.67zm6.105.004c0 .088.015.176.015.264.528 7.333 1.159 14.753 2.962 21.822.558 2.229 1.423 4.34 2.317 6.408-.997-4.517-1.378-9.004-1.627-13.712-.191-2.786-.602-5.66-.63-8.432-.03-2.214.439-4.209.747-6.35h2.361c-.176 1.027-.381 2.068-.47 3.094-.073 1.35.03 2.61.162 3.96.293 2.786.455 5.631.587 8.447.176 3.124.249 6.335.865 9.371.513 2.566 1.261 5.074 1.76 7.626.542 2.8.718 5.367.469 8.227-.03.22-.059.484-.073.704.117 2.17-.074 4.37-.323 6.54h-2.214c0-3.373.176-6.878-.807-10.119-.938-3.05-2.464-5.719-3.666-8.579a44.067 44.067 0 0 1-2.728-9.194c-1.202-6.497-1.364-13.404-1.73-20.077zM46.387.012c0 .381 0 .762.03 1.144.131 3.153.542 6.306.615 9.473.088 3.095.235 6.203.748 9.24l.11.558.11.57v17.584a35.202 35.202 0 0 0-.22-3.036c-.63-5.895-2.302-11.541-2.977-17.437-.352-3.02-.337-5.983-.352-9.033-.015-2.875-.176-5.764-.117-8.667 0-.088.013-.17.021-.258l.008-.138h2.024zM10.444.015c.279 1.1.47 2.229.66 3.255.455 2.537.675 5.661.264 8.257-.41 2.903-1.437 5.382-1.54 8.403-.014.381-.029.792-.029 1.173.543-1.437 1.012-2.874 1.51-4.37.587-1.672 1.408-3.535 1.408-5.397-.039-3.363-.437-6.715-.752-10.065L11.852.015h2.625c.015.616.044 1.217.118 1.818.19 2.097-.132 4.165.146 6.291.176 1.394.352 2.772.147 4.18-.22 1.716-.748 3.27-1.247 4.869-.513 1.569-.865 3.226-1.525 4.751-.645 1.393-2.024 8.565-2.053 9.811 0 .176-.235.176-.25 0-.014-1.29-1.583-8.638-1.539-11.087.03-2.8.69-5.44.777-8.197.103-2.919.323-5.94.19-8.843-.034-.962-.173-1.924-.257-2.879l-.05-.714h1.51z"></path></svg></g><path fill="#000000" fill-rule="nonzero" d="M0 16.14L0 16.14Q0 15.49 0.08 14.95Q0.15 14.40 0.30 13.77L0.30 13.77L2.66 13.77L2.66 14.74Q2.66 15.55 2.76 16.17Q2.86 16.79 3.09 17.22Q3.32 17.65 3.70 17.87Q4.08 18.08 4.63 18.08L4.63 18.08Q5.50 18.08 5.95 17.61Q6.41 17.13 6.41 16.22L6.41 16.22Q6.41 15.75 6.35 15.36Q6.28 14.96 6.12 14.58Q5.96 14.19 5.70 13.76Q5.43 13.34 5.00 12.81L5.00 12.81L1.84 9.05Q1.00 7.97 0.54 6.87Q0.08 5.78 0.08 4.54L0.08 4.54Q0.08 3.54 0.39 2.71Q0.70 1.88 1.29 1.27Q1.88 0.67 2.74 0.33Q3.60 0 4.69 0L4.69 0Q6.01 0 6.90 0.38Q7.78 0.75 8.31 1.36Q8.84 1.97 9.05 2.72Q9.27 3.48 9.27 4.24L9.27 4.24Q9.27 4.89 9.17 5.43Q9.07 5.98 8.94 6.63L8.94 6.63L6.60 6.63L6.60 5.68Q6.60 4.09 6.14 3.24Q5.68 2.39 4.65 2.39L4.65 2.39Q3.80 2.39 3.38 2.87Q2.95 3.34 2.95 4.14L2.95 4.14Q2.95 4.56 3.02 4.90Q3.08 5.24 3.21 5.53Q3.33 5.81 3.50 6.08Q3.68 6.35 3.90 6.64L3.90 6.64L7.43 10.91Q8.39 12.16 8.91 13.32Q9.42 14.47 9.42 15.76L9.42 15.76Q9.42 16.83 9.09 17.68Q8.75 18.54 8.13 19.14Q7.51 19.73 6.63 20.06Q5.75 20.38 4.65 20.38L4.65 20.38Q3.29 20.38 2.40 20.02Q1.50 19.65 0.97 19.05Q0.43 18.46 0.22 17.70Q0 16.93 0 16.14ZM11.98 20.19L11.98 0.18L15.01 0.18L15.01 8.55L18.61 8.55L18.61 0.18L21.64 0.18L21.64 20.19L18.61 20.19L18.61 10.95L15.01 10.95L15.01 20.19L11.98 20.19ZM29.52 20.37L29.52 20.37Q29.04 20.37 28.48 20.29Q27.91 20.21 27.36 19.97Q26.81 19.72 26.30 19.27Q25.79 18.82 25.40 18.08Q25.01 17.34 24.77 16.26Q24.54 15.18 24.54 13.68L24.54 13.68L24.54 6.59Q24.54 5.07 24.78 4.00Q25.02 2.93 25.42 2.20Q25.82 1.46 26.33 1.03Q26.84 0.60 27.39 0.37Q27.95 0.14 28.50 0.07Q29.05 0 29.52 0L29.52 0Q29.96 0 30.51 0.06Q31.05 0.13 31.60 0.35Q32.14 0.56 32.66 0.99Q33.18 1.42 33.57 2.15Q33.97 2.88 34.21 3.97Q34.45 5.05 34.45 6.59L34.45 6.59L34.45 13.68Q34.45 15.16 34.21 16.24Q33.96 17.31 33.56 18.05Q33.16 18.80 32.64 19.25Q32.12 19.70 31.58 19.95Q31.03 20.20 30.49 20.29Q29.95 20.37 29.52 20.37ZM29.52 18.08L29.52 18.08Q29.96 18.08 30.30 17.93Q30.63 17.78 30.85 17.40Q31.07 17.03 31.18 16.41Q31.29 15.80 31.29 14.86L31.29 14.86L31.29 5.75Q31.29 4.79 31.18 4.15Q31.07 3.50 30.85 3.11Q30.63 2.72 30.30 2.55Q29.96 2.39 29.52 2.39L29.52 2.39Q29.06 2.39 28.72 2.55Q28.38 2.72 28.16 3.11Q27.94 3.50 27.83 4.15Q27.71 4.79 27.71 5.75L27.71 5.75L27.71 14.86Q27.71 15.80 27.83 16.41Q27.94 17.03 28.16 17.40Q28.38 17.78 28.72 17.93Q29.06 18.08 29.52 18.08ZM37.32 20.19L37.32 0.18L40.36 0.18L40.36 8.92L40.45 8.92L43.92 0.18L46.95 0.18L43.08 9.56L47.38 20.19L44.13 20.19L40.45 10.66L40.36 10.66L40.36 20.19L37.32 20.19ZM49.03 14.04L49.03 0.18L52.09 0.18L52.09 14.85Q52.09 15.79 52.18 16.41Q52.28 17.03 52.48 17.40Q52.69 17.77 53.01 17.92Q53.33 18.08 53.78 18.08L53.78 18.08Q54.22 18.08 54.56 17.92Q54.89 17.77 55.11 17.40Q55.32 17.03 55.44 16.41Q55.55 15.79 55.55 14.85L55.55 14.85L55.55 0.18L58.57 0.18L58.57 14.04Q58.57 15.50 58.34 16.55Q58.10 17.59 57.71 18.29Q57.33 19.00 56.83 19.41Q56.33 19.82 55.80 20.03Q55.27 20.25 54.74 20.31Q54.21 20.37 53.78 20.37L53.78 20.37Q53.34 20.37 52.82 20.31Q52.30 20.25 51.77 20.03Q51.25 19.82 50.75 19.41Q50.26 19.00 49.88 18.29Q49.49 17.59 49.26 16.55Q49.03 15.52 49.03 14.04L49.03 14.04Z" transform="translate(0, 52)"></path></svg>