<?xml version="1.0" standalone="no"?>
<svg xmlns="http://www.w3.org/2000/svg" viewBox="0 0 61 72" width="61" height="72"><g fill="#ffffff" color="#ffffff" transform="translate(8.145 0) scale(0.9166667) "><svg width="48.0" height="48.0" x="0.0" y="0.0" viewBox="0 0 48 48"><path fill="currentColor" fill-rule="evenodd" d="M27.277.016c.25 1.305.528 2.625.66 3.989.337 3.256.337 6.526.484 9.81.117 3.022-.147 6.116.498 9.093.367 1.657.836 3.285 1.218 4.942.293 1.32.366 2.684.615 4.033.514 2.757 1.702 5.177 2.259 7.89.475 2.323.826 4.746 1.083 7.182L34.2 48H32.6c-.029-.19-.073-.396-.102-.572a69.75 69.75 0 0 0-2.244-8.124c-1.012-2.904-1.965-5.382-2.39-8.491-.352-2.89-1.408-5.573-1.804-8.433-.866-6.027-.088-12.26-.85-18.331a47.803 47.803 0 0 0-.59-3.23l-.173-.803h2.83zM18.82 0c.029 1.085.088 2.156.132 3.226.16 3.241.396 6.512.22 9.753-.294 5.792-2.479 11.394-4.033 16.776-.88 3.08-1.012 6.1-1.012 9.327 0 2.706-.226 5.352-.079 8.025l.064.892H10.74c-.454-2.01-.982-3.99-1.672-5.925-1.569-4.634-3.402-9.298-4.355-14.167-.425-2.302-.792-4.692-.748-7.053.059-2.45.484-4.84.85-7.26.65-4.21.963-8.307.984-12.523V.015h.835c.968 4.223.807 8.916.513 13.183-.176 2.523-.704 5.075-.689 7.597.03 2.61.381 5.118.895 7.64.967 4.855 2.625 9.43 4.091 14.064.059-1.833.147-3.695.176-5.529.073-2.669.352-5.132 1.203-7.61.997-2.904 2.243-5.661 3.065-8.668.792-2.8.894-5.455.835-8.403-.073-3.24-.249-6.496-.395-9.752-.047-.622-.113-1.29-.175-1.999L16.107 0h2.713zM.279.013C2.83.526 3.285 16.042 3.373 17.89c.147 3.49.308 6.951.161 10.456-.044.895-.073 1.774-.117 2.684.44 1.833.484 3.783 1.056 5.602.63 1.92 1.51 3.695 2.317 5.528a27.412 27.412 0 0 1 1.654 5.16l.135.662h-1.07c-.133-.322-.28-.63-.44-.938-.998-1.995-2.244-3.784-3.197-5.807-.176-.367-.338-.778-.528-1.188.12 2.453.434 4.857 1.007 7.235l.18.713h-2.61c-2.346-8.843-.381-18.61-.63-27.76-.132-4.034-.235-8.052-.455-12.085C.763 6.392.63 4.647.469 2.888.428 2.432.451.78.075.344L0 .277V.013h.279zm19.959 30.825c-.47 3.416-.836 6.892-.792 10.382.012 1.924.197 3.868.333 5.807l.063.969h-2.728c-.264-2.757-.44-5.514-.367-8.286.118-3.446.338-7.054.968-10.427.66-3.373 1.687-6.6 2.215-10.016.557-3.446 1.452-6.922 1.056-10.442-.29-2.551-.665-5.038-.886-7.544L20.003.026h2.713c.044.499.073.998.117 1.51.323 3.257 1.276 6.776 1.027 10.105a44.549 44.549 0 0 1-.425 3.666c.058 2.801-.074 5.632.058 8.491.132 2.596.396 5.236 1.115 7.7.616 2.067 1.232 4.164 1.628 6.305.613 3.107.911 6.165 1.037 9.262l.033.93h-2.449c-.425-4.326-.836-8.666-2.068-12.817-.777-2.654-1.451-5.352-1.789-8.108-.308 1.245-.586 2.477-.762 3.768zM29.903.012h2.67c.337 2.625.63 5.25.791 7.919.22 4.355.382 8.74.91 13.066.513 4.033 1.642 7.45 3.138 11.072 1.305 3.197 2.478 6.336 2.904 9.885.2 1.697.272 3.437.298 5.174l.01.868H37.91c.015-2.097-.044-4.165-.366-6.218-.587-3.725-2.068-6.922-3.417-10.31-2.918-7.391-3.021-15.442-3.49-23.479-.147-2.405-.235-4.854-.616-7.259l-.059-.359-.059-.36h2.67zm6.105.004c0 .088.015.176.015.264.528 7.333 1.159 14.753 2.962 21.822.558 2.229 1.423 4.34 2.317 6.408-.997-4.517-1.378-9.004-1.627-13.712-.191-2.786-.602-5.66-.63-8.432-.03-2.214.439-4.209.747-6.35h2.361c-.176 1.027-.381 2.068-.47 3.094-.073 1.35.03 2.61.162 3.96.293 2.786.455 5.631.587 8.447.176 3.124.249 6.335.865 9.371.513 2.566 1.261 5.074 1.76 7.626.542 2.8.718 5.367.469 8.227-.03.22-.059.484-.073.704.117 2.17-.074 4.37-.323 6.54h-2.214c0-3.373.176-6.878-.807-10.119-.938-3.05-2.464-5.719-3.666-8.579a44.067 44.067 0 0 1-2.728-9.194c-1.202-6.497-1.364-13.404-1.73-20.077zM46.387.012c0 .381 0 .762.03 1.144.131 3.153.542 6.306.615 9.473.088 3.095.235 6.203.748 9.24l.11.558.11.57v17.584a35.202 35.202 0 0 0-.22-3.036c-.63-5.895-2.302-11.541-2.977-17.437-.352-3.02-.337-5.983-.352-9.033-.015-2.875-.176-5.764-.117-8.667 0-.088.013-.17.021-.258l.008-.138h2.024zM10.444.015c.279 1.1.47 2.229.66 3.255.455 2.537.675 5.661.264 8.257-.41 2.903-1.437 5.382-1.54 8.403-.014.381-.029.792-.029 1.173.543-1.437 1.012-2.874 1.51-4.37.587-1.672 1.408-3.535 1.408-5.397-.039-3.363-.437-6.715-.752-10.065L11.852.015h2.625c.015.616.044 1.217.118 1.818.19 2.097-.132 4.165.146 6.291.176 1.394.352 2.772.147 4.18-.22 1.716-.748 3.27-1.247 4.869-.513 1.569-.865 3.226-1.525 4.751-.645 1.393-2.024 8.565-2.053 9.811 0 .176-.235.176-.25 0-.014-1.29-1.583-8.638-1.539-11.087.03-2.8.69-5.44.777-8.197.103-2.919.323-5.94.19-8.843-.034-.962-.173-1.924-.257-2.879l-.05-.714h1.51z"></path></svg></g><path fill="#ffffff" fill-rule="nonzero" d="M5.16 19.82L5.16 19.82Q3.48 19.82 2.36 19.10Q1.25 18.38 0.67 17.11Q0.10 15.84 0 14.16L0 14.16L2.40 13.51Q2.47 14.54 2.72 15.50Q2.98 16.46 3.55 17.08Q4.13 17.69 5.16 17.69L5.16 17.69Q6.22 17.69 6.76 17.10Q7.30 16.51 7.30 15.41L7.30 15.41Q7.30 14.09 6.70 13.28Q6.10 12.48 5.18 11.66L5.18 11.66L1.92 8.78Q0.96 7.94 0.50 6.95Q0.05 5.95 0.05 4.49L0.05 4.49Q0.05 2.35 1.27 1.18Q2.50 0 4.61 0L4.61 0Q5.76 0 6.64 0.30Q7.51 0.60 8.10 1.22Q8.69 1.85 9.04 2.80Q9.38 3.74 9.50 5.02L9.50 5.02L7.20 5.64Q7.13 4.68 6.91 3.88Q6.70 3.07 6.16 2.58Q5.62 2.09 4.61 2.09L4.61 2.09Q3.60 2.09 3.04 2.63Q2.47 3.17 2.47 4.22L2.47 4.22Q2.47 5.11 2.77 5.69Q3.07 6.26 3.74 6.86L3.74 6.86L7.03 9.74Q8.14 10.70 8.98 12.04Q9.82 13.37 9.82 15.19L9.82 15.19Q9.82 16.63 9.22 17.68Q8.62 18.72 7.57 19.27Q6.53 19.82 5.16 19.82ZM14.64 19.61L11.93 19.61L11.93 0.17L14.64 0.17L14.64 8.57L19.63 8.57L19.63 0.17L22.34 0.17L22.34 19.61L19.63 19.61L19.63 10.51L14.64 10.51L14.64 19.61ZM30.36 19.82L30.36 19.82Q28.39 19.82 27.22 19.06Q26.04 18.29 25.54 16.86Q25.03 15.43 25.03 13.51L25.03 13.51L25.03 6.14Q25.03 4.22 25.55 2.84Q26.06 1.46 27.23 0.73Q28.39 0 30.36 0L30.36 0Q32.33 0 33.48 0.74Q34.63 1.49 35.15 2.86Q35.66 4.22 35.66 6.14L35.66 6.14L35.66 13.54Q35.66 15.43 35.15 16.85Q34.63 18.26 33.48 19.04Q32.33 19.82 30.36 19.82ZM30.36 17.69L30.36 17.69Q31.44 17.69 31.99 17.24Q32.54 16.80 32.74 16.00Q32.93 15.19 32.93 14.11L32.93 14.11L32.93 5.59Q32.93 4.51 32.74 3.73Q32.54 2.95 31.99 2.53Q31.44 2.11 30.36 2.11L30.36 2.11Q29.28 2.11 28.72 2.53Q28.15 2.95 27.96 3.73Q27.77 4.51 27.77 5.59L27.77 5.59L27.77 14.11Q27.77 15.19 27.96 16.00Q28.15 16.80 28.72 17.24Q29.28 17.69 30.36 17.69ZM41.04 19.61L38.33 19.61L38.33 0.17L41.04 0.17L41.04 9.34L45.50 0.17L48.02 0.17L44.18 8.74L48.65 19.61L46.01 19.61L42.29 10.49L41.04 12.74L41.04 19.61ZM55.13 19.82L55.13 19.82Q53.02 19.82 51.89 18.98Q50.76 18.14 50.35 16.62Q49.94 15.10 49.94 13.06L49.94 13.06L49.94 0.17L52.54 0.17L52.54 13.18Q52.54 14.42 52.70 15.46Q52.87 16.49 53.44 17.09Q54.00 17.69 55.13 17.69L55.13 17.69Q56.28 17.69 56.83 17.09Q57.38 16.49 57.55 15.46Q57.72 14.42 57.72 13.18L57.72 13.18L57.72 0.17L60.29 0.17L60.29 13.06Q60.29 15.10 59.88 16.62Q59.47 18.14 58.36 18.98Q57.24 19.82 55.13 19.82Z" transform="translate(0, 52)"></path></svg>